# xmcd
#
# Track frame offsets: 
#        150
#        22330
#        42213
#        62751
#        75955
#        88950
#        105226
#        121877
#        150889
#        164988
#        181951
#        199726
#
# Disc length: 2877 seconds
#
# Revision: 0
# Processed by: cddbd v1.5.2PL0 Copyright (c) Steve Scherf et al.
# Submitted via: ExactAudioCopy v1.3
#
DISCID=940b3b0c
DTITLE=Dudley Taft - Simple Life
DYEAR=2019
DGENRE=Blues Rock
TTITLE0=Give Me A Song
TTITLE1=Simple Life
TTITLE2=I Can't Live Without You
TTITLE3=In Your Way
TTITLE4=Don't Let Them Get Away
TTITLE5=Death By Bliss
TTITLE6=Bombs Away
TTITLE7=If Heartaches Were Nickels
TTITLE8=Never Fade
TTITLE9=Pouring Down
TTITLE10=Shine
TTITLE11=Back To You
EXTD=
EXTT0=
EXTT1=
EXTT2=
EXTT3=
EXTT4=
EXTT5=
EXTT6=
EXTT7=
EXTT8=
EXTT9=
EXTT10=
EXTT11=
PLAYORDER=
